<svg xmlns="http://www.w3.org/2000/svg" width="1200" height="520" viewBox="0 0 1200 520" role="img" aria-label="Skills map">
  <style>
    .title { font: 700 20px Helvetica, Arial, sans-serif; fill: #111827; }
    .label { font: 600 13px Helvetica, Arial, sans-serif; fill: #111827; }
    .text { font: 12px Helvetica, Arial, sans-serif; fill: #111827; }
    .muted { font: 11px Helvetica, Arial, sans-serif; fill: #6B7280; }
    .box { fill: #F8FAFC; stroke: #CBD5E1; stroke-width: 1; rx: 10; }
    .accent { fill: #EEF2FF; stroke: #6366F1; }
  </style>

  <rect x="24" y="16" width="1152" height="488" rx="16" fill="#FFFFFF" stroke="#E5E7EB" />
  <text x="40" y="48" class="title">Skills map</text>

  <rect x="40" y="80" width="360" height="160" class="box accent" />
  <text x="56" y="108" class="label">Workflows</text>
  <text x="56" y="132" class="text">workflow-brainstorm</text>
  <text x="56" y="150" class="text">workflow-execute-plans</text>
  <text x="56" y="168" class="text">workflow-feature-shipper</text>
  <text x="56" y="186" class="text">workflow-project-intake</text>
  <text x="56" y="204" class="text">workflow-ship-faster</text>
  <text x="56" y="222" class="text">workflow-template-extractor</text>
  <text x="56" y="240" class="muted">(+1 more)</text>

  <rect x="420" y="80" width="360" height="160" class="box" />
  <text x="436" y="108" class="label">Tools</text>
  <text x="436" y="132" class="text">deep-research</text>
  <text x="436" y="150" class="text">publish-x-article</text>
  <text x="436" y="168" class="text">tool-ast-grep-rules</text>
  <text x="436" y="186" class="text">tool-better-auth</text>
  <text x="436" y="204" class="text">tool-design-style-selector</text>
  <text x="436" y="222" class="text">tool-hooks-doctor</text>
  <text x="436" y="240" class="muted">(+5 more)</text>

  <rect x="800" y="80" width="360" height="160" class="box" />
  <text x="816" y="108" class="label">Reviews</text>
  <text x="816" y="132" class="text">review-clean-code</text>
  <text x="816" y="150" class="text">review-doc-consistency</text>
  <text x="816" y="168" class="text">review-merge-readiness</text>
  <text x="816" y="186" class="text">review-quality</text>
  <text x="816" y="204" class="text">review-react-best-practices</text>
  <text x="816" y="222" class="text">review-seo-audit</text>

  <rect x="40" y="280" width="360" height="160" class="box" />
  <text x="56" y="308" class="label">Services</text>
  <text x="56" y="332" class="text">cloudflare</text>
  <text x="56" y="350" class="text">mcp-cloudflare</text>
  <text x="56" y="368" class="text">mcp-stripe</text>
  <text x="56" y="386" class="text">mcp-supabase</text>
  <text x="56" y="404" class="text">stripe</text>
  <text x="56" y="422" class="text">supabase</text>

  <rect x="420" y="280" width="360" height="160" class="box" />
  <text x="436" y="308" class="label">Maintenance</text>
  <text x="436" y="332" class="text">skill-creator</text>
  <text x="436" y="350" class="text">skill-evolution</text>
  <text x="436" y="368" class="text">skill-improver</text>
  <text x="436" y="386" class="text">workflow-creator</text>

  <rect x="800" y="280" width="360" height="160" class="box" />
  <text x="816" y="308" class="label">Publishing</text>
  <text x="816" y="332" class="text">tool-x-article-publisher</text>

</svg>
